REM DIRINDEX 1\2,1\3,1\4,1\5,1\6,1\7,1\8
REM DIRNAME cjc152,folder01,folder02,folder03,folder04,folder05,folder06,folder07
TITLE ""
FILE "07_Ch2_Commuting_Behavier.mp3" MP3
  TRACK 01 AUDIO
    TITLE "0:"
    INDEX 01 00:00:00
  TRACK 02 AUDIO
    TITLE "8:cjc152_0315"
    INDEX 01 00:00:11
  TRACK 03 AUDIO
    TITLE "0:"
    INDEX 01 00:02:55
  TRACK 04 AUDIO
    TITLE "8:cjc152_0316"
    INDEX 01 00:03:59
  TRACK 05 AUDIO
    TITLE "0:"
    INDEX 01 00:05:22
  TRACK 06 AUDIO
    TITLE "3:cjc152_0317"
    INDEX 01 00:06:14
  TRACK 07 AUDIO
    TITLE "0:"
    INDEX 01 00:08:01
  TRACK 08 AUDIO
    TITLE "3:cjc152_0318"
    INDEX 01 00:08:68
  TRACK 09 AUDIO
    TITLE "0:"
    INDEX 01 00:11:23
  TRACK 10 AUDIO
    TITLE "3:cjc152_0319"
    INDEX 01 00:13:06
  TRACK 11 AUDIO
    TITLE "0:"
    INDEX 01 00:14:54
  TRACK 12 AUDIO
    TITLE "3:cjc152_0320"
    INDEX 01 00:15:46
  TRACK 13 AUDIO
    TITLE "0:"
    INDEX 01 00:17:74
  TRACK 14 AUDIO
    TITLE "3:cjc152_0321"
    INDEX 01 00:19:58
  TRACK 15 AUDIO
    TITLE "0:"
    INDEX 01 00:22:23
  TRACK 16 AUDIO
    TITLE "3:cjc152_0322"
    INDEX 01 00:23:14
  TRACK 17 AUDIO
    TITLE "0:"
    INDEX 01 00:25:13
  TRACK 18 AUDIO
    TITLE "3:cjc152_0323"
    INDEX 01 00:26:71
  TRACK 19 AUDIO
    TITLE "0:"
    INDEX 01 00:29:13
  TRACK 20 AUDIO
    TITLE "3:cjc152_0324"
    INDEX 01 00:30:05
  TRACK 21 AUDIO
    TITLE "0:"
    INDEX 01 00:32:43
  TRACK 22 AUDIO
    TITLE "3:cjc152_0325"
    INDEX 01 00:34:28
  TRACK 23 AUDIO
    TITLE "0:"
    INDEX 01 00:36:66
  TRACK 24 AUDIO
    TITLE "3:cjc152_0326"
    INDEX 01 00:37:57
  TRACK 25 AUDIO
    TITLE "0:"
    INDEX 01 00:41:14
  TRACK 26 AUDIO
    TITLE "3:cjc152_0327"
    INDEX 01 00:42:74
  TRACK 27 AUDIO
    TITLE "0:"
    INDEX 01 00:46:37
  TRACK 28 AUDIO
    TITLE "3:cjc152_0328"
    INDEX 01 00:47:28
  TRACK 29 AUDIO
    TITLE "0:"
    INDEX 01 00:50:37
  TRACK 30 AUDIO
    TITLE "3:cjc152_0329"
    INDEX 01 00:52:22
  TRACK 31 AUDIO
    TITLE "0:"
    INDEX 01 00:54:68
  TRACK 32 AUDIO
    TITLE "3:cjc152_0330"
    INDEX 01 00:55:61
  TRACK 33 AUDIO
    TITLE "0:"
    INDEX 01 00:59:20
  TRACK 34 AUDIO
    TITLE "3:cjc152_0331"
    INDEX 01 01:01:03
  TRACK 35 AUDIO
    TITLE "0:"
    INDEX 01 01:02:42
  TRACK 36 AUDIO
    TITLE "3:cjc152_0332"
    INDEX 01 01:03:33
  TRACK 37 AUDIO
    TITLE "0:"
    INDEX 01 01:06:16
  TRACK 38 AUDIO
    TITLE "3:cjc152_0333"
    INDEX 01 01:07:74
  TRACK 39 AUDIO
    TITLE "0:"
    INDEX 01 01:09:69
  TRACK 40 AUDIO
    TITLE "3:cjc152_0334"
    INDEX 01 01:10:63
  TRACK 41 AUDIO
    TITLE "0:"
    INDEX 01 01:12:66
  TRACK 42 AUDIO
    TITLE "3:cjc152_0335"
    INDEX 01 01:14:51
  TRACK 43 AUDIO
    TITLE "0:"
    INDEX 01 01:16:54
  TRACK 44 AUDIO
    TITLE "3:cjc152_0336"
    INDEX 01 01:17:45
  TRACK 45 AUDIO
    TITLE "0:"
    INDEX 01 01:20:32
  TRACK 46 AUDIO
    TITLE "3:cjc152_0337"
    INDEX 01 01:22:15
  TRACK 47 AUDIO
    TITLE "0:"
    INDEX 01 01:24:02
  TRACK 48 AUDIO
    TITLE "3:cjc152_0338"
    INDEX 01 01:24:69
  TRACK 49 AUDIO
    TITLE "0:"
    INDEX 01 01:27:69
  TRACK 50 AUDIO
    TITLE "3:cjc152_0339"
    INDEX 01 01:29:52
  TRACK 51 AUDIO
    TITLE "0:"
    INDEX 01 01:31:57
  TRACK 52 AUDIO
    TITLE "3:cjc152_0340"
    INDEX 01 01:32:49
  TRACK 53 AUDIO
    TITLE "0:"
    INDEX 01 01:35:59
  TRACK 54 AUDIO
    TITLE "3:cjc152_0341"
    INDEX 01 01:37:42
  TRACK 55 AUDIO
    TITLE "0:"
    INDEX 01 01:39:29
  TRACK 56 AUDIO
    TITLE "3:cjc152_0342"
    INDEX 01 01:40:23
  TRACK 57 AUDIO
    TITLE "0:"
    INDEX 01 01:42:43
  TRACK 58 AUDIO
    TITLE "3:cjc152_0343"
    INDEX 01 01:44:26
  TRACK 59 AUDIO
    TITLE "0:"
    INDEX 01 01:46:55
  TRACK 60 AUDIO
    TITLE "3:cjc152_0344"
    INDEX 01 01:47:50
  TRACK 61 AUDIO
    TITLE "0:"
    INDEX 01 01:50:29
  TRACK 62 AUDIO
    TITLE "3:cjc152_0345"
    INDEX 01 01:52:12
  TRACK 63 AUDIO
    TITLE "0:"
    INDEX 01 01:54:27
  TRACK 64 AUDIO
    TITLE "3:cjc152_0346"
    INDEX 01 01:55:20
  TRACK 65 AUDIO
    TITLE "0:"
    INDEX 01 01:58:03
  TRACK 66 AUDIO
    TITLE "3:cjc152_0347"
    INDEX 01 01:59:63
  TRACK 67 AUDIO
    TITLE "0:"
    INDEX 01 02:02:20
  TRACK 68 AUDIO
    TITLE "3:cjc152_0348"
    INDEX 01 02:03:14
  TRACK 69 AUDIO
    TITLE "0:"
    INDEX 01 02:06:18
  TRACK 70 AUDIO
    TITLE "3:cjc152_0349"
    INDEX 01 02:08:01
  TRACK 71 AUDIO
    TITLE "0:"
    INDEX 01 02:10:02
  TRACK 72 AUDIO
    TITLE "3:cjc152_0350"
    INDEX 01 02:10:69
  TRACK 73 AUDIO
    TITLE "0:"
    INDEX 01 02:13:28
  TRACK 74 AUDIO
    TITLE "3:cjc152_0351"
    INDEX 01 02:15:13
  TRACK 75 AUDIO
    TITLE "0:"
    INDEX 01 02:16:40
  TRACK 76 AUDIO
    TITLE "3:cjc152_0352"
    INDEX 01 02:17:32
  TRACK 77 AUDIO
    TITLE "0:"
    INDEX 01 02:19:11
  TRACK 78 AUDIO
    TITLE "3:cjc152_0353"
    INDEX 01 02:20:69
  TRACK 79 AUDIO
    TITLE "0:"
    INDEX 01 02:22:68
  TRACK 80 AUDIO
    TITLE "3:cjc152_0354"
    INDEX 01 02:23:60
  TRACK 81 AUDIO
    TITLE "0:"
    INDEX 01 02:27:05
  TRACK 82 AUDIO
    TITLE "3:cjc152_0355"
    INDEX 01 02:28:63
  TRACK 83 AUDIO
    TITLE "0:"
    INDEX 01 02:31:28
  TRACK 84 AUDIO
    TITLE "3:cjc152_0356"
    INDEX 01 02:32:22
  TRACK 85 AUDIO
    TITLE "0:"
    INDEX 01 02:36:49
  TRACK 86 AUDIO
    TITLE "3:cjc152_0357"
    INDEX 01 02:38:32
  TRACK 87 AUDIO
    TITLE "0:"
    INDEX 01 02:40:47
  TRACK 88 AUDIO
    TITLE "3:cjc152_0358"
    INDEX 01 02:41:36
  TRACK 89 AUDIO
    TITLE "0:"
    INDEX 01 02:43:53
  TRACK 90 AUDIO
    TITLE "3:cjc152_0359"
    INDEX 01 02:45:38
  TRACK 91 AUDIO
    TITLE "0:"
    INDEX 01 02:48:13
  TRACK 92 AUDIO
    TITLE "3:cjc152_0360"
    INDEX 01 02:49:06
  TRACK 93 AUDIO
    TITLE "0:"
    INDEX 01 02:53:00
  TRACK 94 AUDIO
    TITLE "3:cjc152_0361"
    INDEX 01 02:54:60
  TRACK 95 AUDIO
    TITLE "0:"
    INDEX 01 02:56:48
  TRACK 96 AUDIO
    TITLE "3:cjc152_0362"
    INDEX 01 02:57:47
  TRACK 97 AUDIO
    TITLE "0:"
    INDEX 01 02:59:48
  TRACK 98 AUDIO
    TITLE "3:cjc152_0363"
    INDEX 01 03:01:31
  TRACK 99 AUDIO
    TITLE "0:"
    INDEX 01 03:03:51
  TRACK 100 AUDIO
    TITLE "3:cjc152_0364"
    INDEX 01 03:04:45
  TRACK 101 AUDIO
    TITLE "0:"
    INDEX 01 03:06:69
  TRACK 102 AUDIO
    TITLE "3:cjc152_0365"
    INDEX 01 03:08:55
  TRACK 103 AUDIO
    TITLE "0:"
    INDEX 01 03:10:36
  TRACK 104 AUDIO
    TITLE "3:cjc152_0366"
    INDEX 01 03:11:27
  TRACK 105 AUDIO
    TITLE "0:"
    INDEX 01 03:13:21
  TRACK 106 AUDIO
    TITLE "3:cjc152_0367"
    INDEX 01 03:15:04
  TRACK 107 AUDIO
    TITLE "0:"
    INDEX 01 03:16:50
  TRACK 108 AUDIO
    TITLE "3:cjc152_0368"
    INDEX 01 03:17:42
  TRACK 109 AUDIO
    TITLE "0:"
    INDEX 01 03:19:35
  TRACK 110 AUDIO
    TITLE "3:cjc152_0369"
    INDEX 01 03:21:18
  TRACK 111 AUDIO
    TITLE "0:"
    INDEX 01 03:23:66
  TRACK 112 AUDIO
    TITLE "3:cjc152_0370"
    INDEX 01 03:24:60
  TRACK 113 AUDIO
    TITLE "0:"
    INDEX 01 03:28:06
  TRACK 114 AUDIO
    TITLE "3:cjc152_0371"
    INDEX 01 03:29:67
  TRACK 115 AUDIO
    TITLE "0:"
    INDEX 01 03:32:06
  TRACK 116 AUDIO
    TITLE "3:cjc152_0372"
    INDEX 01 03:32:73
  TRACK 117 AUDIO
    TITLE "0:"
    INDEX 01 03:36:24
  TRACK 118 AUDIO
    TITLE "3:cjc152_0373"
    INDEX 01 03:38:07
  TRACK 119 AUDIO
    TITLE "0:"
    INDEX 01 03:39:59
  TRACK 120 AUDIO
    TITLE "3:cjc152_0374"
    INDEX 01 03:40:51
  TRACK 121 AUDIO
    TITLE "0:"
    INDEX 01 03:42:32
  TRACK 122 AUDIO
    TITLE "3:cjc152_0375"
    INDEX 01 03:44:17
  TRACK 123 AUDIO
    TITLE "0:"
    INDEX 01 03:46:22
  TRACK 124 AUDIO
    TITLE "3:cjc152_0376"
    INDEX 01 03:47:15
  TRACK 125 AUDIO
    TITLE "0:"
    INDEX 01 03:50:00
  TRACK 126 AUDIO
    TITLE "3:cjc152_0377"
    INDEX 01 03:51:60
  TRACK 127 AUDIO
    TITLE "0:"
    INDEX 01 03:53:44
  TRACK 128 AUDIO
    TITLE "3:cjc152_0378"
    INDEX 01 03:54:35
  TRACK 129 AUDIO
    TITLE "0:"
    INDEX 01 03:56:42
  TRACK 130 AUDIO
    TITLE "3:cjc152_0379"
    INDEX 01 03:58:27
  TRACK 131 AUDIO
    TITLE "0:"
    INDEX 01 04:00:22
  TRACK 132 AUDIO
    TITLE "3:cjc152_0380"
    INDEX 01 04:01:18
  TRACK 133 AUDIO
    TITLE "0:"
    INDEX 01 04:03:05
  TRACK 134 AUDIO
    TITLE "3:cjc152_0381"
    INDEX 01 04:04:65
  TRACK 135 AUDIO
    TITLE "0:"
    INDEX 01 04:07:59
  TRACK 136 AUDIO
    TITLE "3:cjc152_0382"
    INDEX 01 04:08:51
  TRACK 137 AUDIO
    TITLE "0:"
    INDEX 01 04:11:49
